# xmcd
#
# Track frame offsets:
#	150
#	19473
#	33377
#	49749
#	63332
#	79644
#	96602
#	108130
#	123820
#	144393
#	160752
#	173461
#	185919
#	199584
#
# Disc length: 2946 seconds
#
# Revision: 0
# Processed by: cddbd v1.5.1PL0 Copyright (c) Steve Scherf et al.
# Submitted via: audiograbber 1.83.01
#
DISCID=b60b800e
DTITLE=TEO AZEVEDO - BRASIL COM S
DYEAR=1900
DGENRE=
TTITLE0=MEU ORGULHO É SER VAQUEIRO
TTITLE1=BRASIL COM S
TTITLE2=O TREM
TTITLE3=NATUREZA MORTA
TTITLE4=NO BALANÇO DO FORRÓ
TTITLE5=VIDA DE PEÃO
TTITLE6=MODINHA A MODA MINEIRA
TTITLE7=RAIZ DO MILÊNIO
TTITLE8=VIOLA
TTITLE9=TERRA BRASILIS
TTITLE10=CAÇADA DE CALANGO
TTITLE11=HINO DE SÃO JOSÉ DE ALTO BELO
TTITLE12=NO COMPASSO DO FORRÓ
TTITLE13=LAMENTO DE VAQUEIRO
EXTD=
EXTT0=
EXTT1=
EXTT2=
EXTT3=
EXTT4=
EXTT5=
EXTT6=
EXTT7=
EXTT8=
EXTT9=
EXTT10=
EXTT11=
EXTT12=
EXTT13=
PLAYORDER=
